<svg width="25" height="25" viewBox="0 0 25 25" fill="none" xmlns="http://www.w3.org/2000/svg">
<path d="M10.2073 13.329H4.20728C3.94206 13.329 3.6877 13.4344 3.50017 13.6219C3.31263 13.8094 3.20728 14.0638 3.20728 14.329V20.329C3.20728 20.5942 3.31263 20.8486 3.50017 21.0361C3.6877 21.2237 3.94206 21.329 4.20728 21.329H10.2073C10.4725 21.329 10.7268 21.2237 10.9144 21.0361C11.1019 20.8486 11.2073 20.5942 11.2073 20.329V14.329C11.2073 14.0638 11.1019 13.8094 10.9144 13.6219C10.7268 13.4344 10.4725 13.329 10.2073 13.329ZM9.20728 19.329H5.20728V15.329H9.20728V19.329ZM20.2073 3.32901H14.2073C13.9421 3.32901 13.6877 3.43437 13.5002 3.6219C13.3126 3.80944 13.2073 4.06379 13.2073 4.32901V10.329C13.2073 10.5942 13.3126 10.8486 13.5002 11.0361C13.6877 11.2237 13.9421 11.329 14.2073 11.329H20.2073C20.4725 11.329 20.7268 11.2237 20.9144 11.0361C21.1019 10.8486 21.2073 10.5942 21.2073 10.329V4.32901C21.2073 4.06379 21.1019 3.80944 20.9144 3.6219C20.7268 3.43437 20.4725 3.32901 20.2073 3.32901ZM19.2073 9.32901H15.2073V5.32901H19.2073V9.32901ZM20.2073 16.329H18.2073V14.329C18.2073 14.0638 18.1019 13.8094 17.9144 13.6219C17.7268 13.4344 17.4725 13.329 17.2073 13.329C16.9421 13.329 16.6877 13.4344 16.5002 13.6219C16.3126 13.8094 16.2073 14.0638 16.2073 14.329V16.329H14.2073C13.9421 16.329 13.6877 16.4344 13.5002 16.6219C13.3126 16.8094 13.2073 17.0638 13.2073 17.329C13.2073 17.5942 13.3126 17.8486 13.5002 18.0361C13.6877 18.2237 13.9421 18.329 14.2073 18.329H16.2073V20.329C16.2073 20.5942 16.3126 20.8486 16.5002 21.0361C16.6877 21.2237 16.9421 21.329 17.2073 21.329C17.4725 21.329 17.7268 21.2237 17.9144 21.0361C18.1019 20.8486 18.2073 20.5942 18.2073 20.329V18.329H20.2073C20.4725 18.329 20.7268 18.2237 20.9144 18.0361C21.1019 17.8486 21.2073 17.5942 21.2073 17.329C21.2073 17.0638 21.1019 16.8094 20.9144 16.6219C20.7268 16.4344 20.4725 16.329 20.2073 16.329ZM10.2073 3.32901H4.20728C3.94206 3.32901 3.6877 3.43437 3.50017 3.6219C3.31263 3.80944 3.20728 4.06379 3.20728 4.32901V10.329C3.20728 10.5942 3.31263 10.8486 3.50017 11.0361C3.6877 11.2237 3.94206 11.329 4.20728 11.329H10.2073C10.4725 11.329 10.7268 11.2237 10.9144 11.0361C11.1019 10.8486 11.2073 10.5942 11.2073 10.329V4.32901C11.2073 4.06379 11.1019 3.80944 10.9144 3.6219C10.7268 3.43437 10.4725 3.32901 10.2073 3.32901ZM9.20728 9.32901H5.20728V5.32901H9.20728V9.32901Z" fill="white"/>
</svg>
