<svg width="14" height="13" viewBox="0 0 14 13" fill="none" xmlns="http://www.w3.org/2000/svg">
<path d="M7.95728 0.980469C7.95728 0.566255 7.62149 0.230469 7.20728 0.230469C6.79306 0.230469 6.45728 0.566255 6.45728 0.980469H7.95728ZM6.45728 11.9805C6.45728 12.3947 6.79306 12.7305 7.20728 12.7305C7.62149 12.7305 7.95728 12.3947 7.95728 11.9805H6.45728ZM12.7073 7.23047C13.1215 7.23047 13.4573 6.89468 13.4573 6.48047C13.4573 6.06626 13.1215 5.73047 12.7073 5.73047V7.23047ZM1.70728 5.73047C1.29306 5.73047 0.957275 6.06625 0.957275 6.48047C0.957275 6.89468 1.29306 7.23047 1.70728 7.23047L1.70728 5.73047ZM6.45728 0.980469V11.9805H7.95728V0.980469H6.45728ZM12.7073 5.73047L1.70728 5.73047L1.70728 7.23047L12.7073 7.23047V5.73047Z" fill="white"/>
</svg>
