<svg width="19" height="19" viewBox="0 0 19 19" fill="none" xmlns="http://www.w3.org/2000/svg">
<path d="M10.7076 4.98083C10.7076 5.80926 10.0361 6.48083 9.20764 6.48083C8.37921 6.48083 7.70764 5.80926 7.70764 4.98083C7.70764 4.15241 8.37921 3.48083 9.20764 3.48083C10.0361 3.48083 10.7076 4.15241 10.7076 4.98083Z" fill="#DBEAFE"/>
<path d="M10.7076 9.48083C10.7076 10.3093 10.0361 10.9808 9.20764 10.9808C8.37921 10.9808 7.70764 10.3093 7.70764 9.48083C7.70764 8.65241 8.37921 7.98083 9.20764 7.98083C10.0361 7.98083 10.7076 8.65241 10.7076 9.48083Z" fill="#DBEAFE"/>
<path d="M10.7076 13.9808C10.7076 14.8093 10.0361 15.4808 9.20764 15.4808C8.37921 15.4808 7.70764 14.8093 7.70764 13.9808C7.70764 13.1524 8.37921 12.4808 9.20764 12.4808C10.0361 12.4808 10.7076 13.1524 10.7076 13.9808Z" fill="#DBEAFE"/>
</svg>
