<svg width="25" height="25" viewBox="0 0 25 25" fill="none" xmlns="http://www.w3.org/2000/svg">
<path d="M9.34918 21.9146C7.67363 21.4158 6.18218 20.4896 5.00121 19.2625C5.44178 18.7403 5.70728 18.0657 5.70728 17.329C5.70728 15.6722 4.36413 14.329 2.70728 14.329C2.60705 14.329 2.50797 14.3339 2.41027 14.3435C2.27717 13.6928 2.20728 13.0191 2.20728 12.329C2.20728 11.2837 2.36766 10.2759 2.66517 9.32871C2.67918 9.32891 2.69322 9.32901 2.70728 9.32901C4.36413 9.32901 5.70728 7.98586 5.70728 6.32901C5.70728 5.85336 5.59658 5.40356 5.39958 5.00401C6.55603 3.9287 7.96753 3.12396 9.53333 2.69052C10.0295 3.66305 11.0406 4.32902 12.2073 4.32902C13.3739 4.32902 14.3851 3.66305 14.8812 2.69052C16.447 3.12396 17.8585 3.9287 19.015 5.00401C18.818 5.40356 18.7073 5.85336 18.7073 6.32901C18.7073 7.98586 20.0504 9.32901 21.7073 9.32901C21.7213 9.32901 21.7354 9.32891 21.7494 9.32871C22.0469 10.2759 22.2073 11.2837 22.2073 12.329C22.2073 13.0191 22.1374 13.6928 22.0043 14.3435C21.9066 14.3339 21.8075 14.329 21.7073 14.329C20.0504 14.329 18.7073 15.6722 18.7073 17.329C18.7073 18.0657 18.9728 18.7403 19.4133 19.2625C18.2324 20.4896 16.7409 21.4158 15.0654 21.9146C14.6787 20.7049 13.5453 19.829 12.2073 19.829C10.8693 19.829 9.73588 20.7049 9.34918 21.9146Z" stroke="white" stroke-width="2" stroke-linejoin="round"/>
<path d="M12.2073 15.829C14.1403 15.829 15.7073 14.262 15.7073 12.329C15.7073 10.396 14.1403 8.82901 12.2073 8.82901C10.2743 8.82901 8.70728 10.396 8.70728 12.329C8.70728 14.262 10.2743 15.829 12.2073 15.829Z" stroke="white" stroke-width="2" stroke-linejoin="round"/>
</svg>
