<svg width="14" height="15" viewBox="0 0 14 15" fill="none" xmlns="http://www.w3.org/2000/svg">
<path fill-rule="evenodd" clip-rule="evenodd" d="M11.1898 10.4055L13.7398 12.948C13.8818 13.0888 13.9616 13.2805 13.9616 13.4805C13.9616 13.6804 13.8818 13.8721 13.7398 14.013C13.5989 14.155 13.4073 14.2348 13.2073 14.2348C13.0073 14.2348 12.8156 14.155 12.6748 14.013L10.1323 11.463C9.08412 12.2857 7.78977 12.7321 6.45728 12.7305C3.14357 12.7305 0.457275 10.0442 0.457275 6.73047C0.457275 3.41676 3.14357 0.730469 6.45728 0.730469C9.77098 0.730469 12.4573 3.41676 12.4573 6.73047C12.4589 8.06296 12.0125 9.35731 11.1898 10.4055ZM6.45728 2.23047C3.97199 2.23047 1.95728 4.24519 1.95728 6.73047C1.95728 9.21575 3.97199 11.2305 6.45728 11.2305C8.94256 11.2305 10.9573 9.21575 10.9573 6.73047C10.9573 4.24519 8.94256 2.23047 6.45728 2.23047Z" fill="#1E293B"/>
</svg>
