<svg width="64" height="49" viewBox="0 0 64 49" fill="none" xmlns="http://www.w3.org/2000/svg">
<path d="M1.60883 21.0254C-0.257304 22.8915 -0.257304 25.917 1.60883 27.783L20.7551 46.9284C22.6213 48.7945 25.6469 48.7945 27.513 46.9284L46.6593 27.783C48.5254 25.917 48.5254 22.8915 46.6593 21.0254L36.5884 10.955L33.2332 14.31L41.7839 22.8603C42.6364 23.7127 42.6364 25.0948 41.7839 25.9472L25.898 41.8324C25.0455 42.6849 23.6634 42.6849 22.8109 41.8324L6.92498 25.9472C6.0725 25.0948 6.0725 23.7127 6.92497 22.8603L22.8109 6.97506C23.6634 6.12262 25.0455 6.12262 25.898 6.97506L26.8722 7.94917L30.2273 4.59419L27.513 1.88C25.6469 0.0139575 22.6213 0.0139571 20.7551 1.88L1.60883 21.0254Z" fill="url(#paint0_linear_9_1011)"/>
<path d="M31.6432 12.72L34.9983 9.36498L31.8174 6.1842L28.4622 9.53918L31.6432 12.72Z" fill="url(#paint1_linear_9_1011)"/>
<path d="M16.9739 21.0265C15.1078 22.8925 15.1078 25.918 16.9739 27.784L27.0445 37.8542L30.3991 34.4998L21.8476 25.9487C20.9951 25.0963 20.9951 23.7142 21.8476 22.8618L37.7335 6.97657C38.586 6.12413 39.9681 6.12413 40.8206 6.97657L56.7065 22.8618C57.559 23.7142 57.559 25.0963 56.7065 25.9487L40.8206 41.8339C39.9681 42.6864 38.586 42.6864 37.7335 41.8339L36.7602 40.8607L33.4056 44.215L36.1202 46.9295C37.9863 48.7955 41.0119 48.7955 42.8781 46.9295L62.0244 27.784C63.8905 25.918 63.8905 22.8925 62.0244 21.0265L42.8781 1.88103C41.0119 0.0149877 37.9863 0.0149873 36.1202 1.88103L16.9739 21.0265Z" fill="url(#paint2_linear_9_1011)"/>
<path d="M31.8156 42.625L35.1701 39.2706L31.9892 36.0899L28.6346 39.4442L31.8156 42.625Z" fill="url(#paint3_linear_9_1011)"/>
<defs>
<linearGradient id="paint0_linear_9_1011" x1="39.4991" y1="0.481456" x2="39.4991" y2="48.329" gradientUnits="userSpaceOnUse">
<stop stop-color="#60A5FA"/>
<stop offset="1" stop-color="#3B82F6"/>
</linearGradient>
<linearGradient id="paint1_linear_9_1011" x1="39.4991" y1="0.481456" x2="39.4991" y2="48.329" gradientUnits="userSpaceOnUse">
<stop stop-color="#60A5FA"/>
<stop offset="1" stop-color="#3B82F6"/>
</linearGradient>
<linearGradient id="paint2_linear_9_1011" x1="39.4991" y1="0.481456" x2="39.4991" y2="48.329" gradientUnits="userSpaceOnUse">
<stop stop-color="#60A5FA"/>
<stop offset="1" stop-color="#3B82F6"/>
</linearGradient>
<linearGradient id="paint3_linear_9_1011" x1="39.4991" y1="0.481456" x2="39.4991" y2="48.329" gradientUnits="userSpaceOnUse">
<stop stop-color="#60A5FA"/>
<stop offset="1" stop-color="#3B82F6"/>
</linearGradient>
</defs>
</svg>
