<svg width="19" height="21" viewBox="0 0 19 21" fill="none" xmlns="http://www.w3.org/2000/svg">
<path d="M18.2073 7.26901C18.1969 7.17714 18.1767 7.08664 18.1473 6.99901V6.90901C18.0992 6.80619 18.0351 6.71168 17.9573 6.62901L11.9573 0.62901C11.8746 0.551226 11.7801 0.487091 11.6773 0.43901C11.6474 0.43477 11.6171 0.43477 11.5873 0.43901C11.4857 0.380751 11.3735 0.343354 11.2573 0.32901H7.20728C6.41163 0.32901 5.64856 0.645081 5.08596 1.20769C4.52335 1.7703 4.20728 2.53336 4.20728 3.32901V4.32901H3.20728C2.41163 4.32901 1.64856 4.64508 1.08596 5.20769C0.523346 5.7703 0.207275 6.53336 0.207275 7.32901V17.329C0.207275 18.1247 0.523346 18.8877 1.08596 19.4503C1.64856 20.0129 2.41163 20.329 3.20728 20.329H11.2073C12.0029 20.329 12.766 20.0129 13.3286 19.4503C13.8912 18.8877 14.2073 18.1247 14.2073 17.329V16.329H15.2073C16.0029 16.329 16.766 16.0129 17.3286 15.4503C17.8912 14.8877 18.2073 14.1247 18.2073 13.329V7.32901C18.2073 7.32901 18.2073 7.32901 18.2073 7.26901ZM12.2073 3.73901L14.7973 6.32901H13.2073C12.9421 6.32901 12.6877 6.22365 12.5002 6.03612C12.3126 5.84858 12.2073 5.59423 12.2073 5.32901V3.73901ZM12.2073 17.329C12.2073 17.5942 12.1019 17.8486 11.9144 18.0361C11.7268 18.2237 11.4725 18.329 11.2073 18.329H3.20728C2.94206 18.329 2.68771 18.2237 2.50017 18.0361C2.31263 17.8486 2.20728 17.5942 2.20728 17.329V7.32901C2.20728 7.06379 2.31263 6.80944 2.50017 6.6219C2.68771 6.43437 2.94206 6.32901 3.20728 6.32901H4.20728V13.329C4.20728 14.1247 4.52335 14.8877 5.08596 15.4503C5.64856 16.0129 6.41163 16.329 7.20728 16.329H12.2073V17.329ZM16.2073 13.329C16.2073 13.5942 16.1019 13.8486 15.9144 14.0361C15.7268 14.2237 15.4725 14.329 15.2073 14.329H7.20728C6.94206 14.329 6.68771 14.2237 6.50017 14.0361C6.31263 13.8486 6.20728 13.5942 6.20728 13.329V3.32901C6.20728 3.06379 6.31263 2.80944 6.50017 2.6219C6.68771 2.43437 6.94206 2.32901 7.20728 2.32901H10.2073V5.32901C10.2073 6.12466 10.5233 6.88772 11.086 7.45033C11.6486 8.01294 12.4116 8.32901 13.2073 8.32901H16.2073V13.329Z" fill="white"/>
</svg>
