<svg width="21" height="21" viewBox="0 0 21 21" fill="none" xmlns="http://www.w3.org/2000/svg">
<path fill-rule="evenodd" clip-rule="evenodd" d="M2.08228 18.1414C2.08228 18.314 2.22219 18.4539 2.39478 18.4539H5.20728V16.8914C5.20728 16.3737 5.62701 15.9539 6.14478 15.9539H9.26978C9.78754 15.9539 10.2073 16.3737 10.2073 16.8914V18.4539H13.0198C13.1924 18.4539 13.3323 18.314 13.3323 18.1414V2.5165C13.3323 2.34391 13.1924 2.204 13.0198 2.204H2.39478C2.22219 2.204 2.08228 2.34391 2.08228 2.5165V18.1414ZM2.39478 20.3289C1.18665 20.3289 0.207275 19.3495 0.207275 18.1414V2.5165C0.207275 1.30838 1.18665 0.32901 2.39478 0.32901H13.0198C14.2279 0.32901 15.2073 1.30838 15.2073 2.5165V18.1414C15.2073 18.2475 15.1998 18.3519 15.1852 18.454H18.0198C18.1924 18.454 18.3323 18.3141 18.3323 18.1415V10.6855C18.3323 10.581 18.28 10.4835 18.1931 10.4255L16.8748 9.5466C16.4439 9.25939 16.3275 8.67733 16.6148 8.24652C16.9019 7.81573 17.484 7.69931 17.9148 7.98651L19.2332 8.86543C19.8418 9.27113 20.2073 9.95414 20.2073 10.6855V18.1415C20.2073 19.3496 19.2279 20.329 18.0198 20.329H13.6448C13.5595 20.329 13.4769 20.3176 13.3983 20.2963C13.2754 20.3178 13.1489 20.3289 13.0198 20.3289H9.26978C8.75201 20.3289 8.33228 19.9091 8.33228 19.3914V17.8289H7.08228V19.3914C7.08228 19.9091 6.66254 20.3289 6.14478 20.3289H2.39478ZM3.95728 5.01648C3.95728 4.49872 4.37701 4.07899 4.89478 4.07899H5.51978C6.03754 4.07899 6.45728 4.49872 6.45728 5.01648C6.45728 5.53424 6.03754 5.95398 5.51978 5.95398H4.89478C4.37701 5.95398 3.95728 5.53424 3.95728 5.01648ZM4.89478 7.82896C4.37701 7.82896 3.95728 8.2487 3.95728 8.76646C3.95728 9.28422 4.37701 9.70395 4.89478 9.70395H5.51978C6.03754 9.70395 6.45728 9.28422 6.45728 8.76646C6.45728 8.2487 6.03754 7.82896 5.51978 7.82896H4.89478ZM3.95728 12.5164C3.95728 11.9987 4.37701 11.5789 4.89478 11.5789H5.51978C6.03754 11.5789 6.45728 11.9987 6.45728 12.5164C6.45728 13.0342 6.03754 13.4539 5.51978 13.4539H4.89478C4.37701 13.4539 3.95728 13.0342 3.95728 12.5164ZM9.89478 11.5789C9.37701 11.5789 8.95728 11.9987 8.95728 12.5164C8.95728 13.0342 9.37701 13.4539 9.89478 13.4539H10.5198C11.0375 13.4539 11.4573 13.0342 11.4573 12.5164C11.4573 11.9987 11.0375 11.5789 10.5198 11.5789H9.89478ZM8.95728 8.76646C8.95728 8.2487 9.37701 7.82896 9.89478 7.82896H10.5198C11.0375 7.82896 11.4573 8.2487 11.4573 8.76646C11.4573 9.28422 11.0375 9.70395 10.5198 9.70395H9.89478C9.37701 9.70395 8.95728 9.28422 8.95728 8.76646ZM9.89478 4.07899C9.37701 4.07899 8.95728 4.49872 8.95728 5.01648C8.95728 5.53424 9.37701 5.95398 9.89478 5.95398H10.5198C11.0375 5.95398 11.4573 5.53424 11.4573 5.01648C11.4573 4.49872 11.0375 4.07899 10.5198 4.07899H9.89478Z" fill="white"/>
</svg>
