<svg width="17" height="21" viewBox="0 0 17 21" fill="none" xmlns="http://www.w3.org/2000/svg">
<path d="M16.2073 7.26901C16.1969 7.17714 16.1767 7.08664 16.1473 6.99901V6.90901C16.0992 6.80619 16.0351 6.71168 15.9573 6.62901L9.95728 0.62901C9.87461 0.551226 9.7801 0.487091 9.67728 0.43901C9.64743 0.43477 9.61713 0.43477 9.58728 0.43901C9.48569 0.380751 9.3735 0.343354 9.25728 0.32901H3.20728C2.41163 0.32901 1.64856 0.645081 1.08596 1.20769C0.523346 1.7703 0.207275 2.53336 0.207275 3.32901V17.329C0.207275 18.1247 0.523346 18.8877 1.08596 19.4503C1.64856 20.0129 2.41163 20.329 3.20728 20.329H13.2073C14.0029 20.329 14.766 20.0129 15.3286 19.4503C15.8912 18.8877 16.2073 18.1247 16.2073 17.329V7.32901C16.2073 7.32901 16.2073 7.32901 16.2073 7.26901ZM10.2073 3.73901L12.7973 6.32901H11.2073C10.9421 6.32901 10.6877 6.22365 10.5002 6.03612C10.3126 5.84858 10.2073 5.59423 10.2073 5.32901V3.73901ZM14.2073 17.329C14.2073 17.5942 14.1019 17.8486 13.9144 18.0361C13.7268 18.2237 13.4725 18.329 13.2073 18.329H3.20728C2.94206 18.329 2.68771 18.2237 2.50017 18.0361C2.31263 17.8486 2.20728 17.5942 2.20728 17.329V3.32901C2.20728 3.06379 2.31263 2.80944 2.50017 2.6219C2.68771 2.43437 2.94206 2.32901 3.20728 2.32901H8.20728V5.32901C8.20728 6.12466 8.52335 6.88772 9.08595 7.45033C9.64856 8.01294 10.4116 8.32901 11.2073 8.32901H14.2073V17.329ZM10.2073 12.329H9.20728V11.329C9.20728 11.0638 9.10192 10.8094 8.91438 10.6219C8.72685 10.4344 8.47249 10.329 8.20728 10.329C7.94206 10.329 7.68771 10.4344 7.50017 10.6219C7.31263 10.8094 7.20728 11.0638 7.20728 11.329V12.329H6.20728C5.94206 12.329 5.68771 12.4344 5.50017 12.6219C5.31263 12.8094 5.20728 13.0638 5.20728 13.329C5.20728 13.5942 5.31263 13.8486 5.50017 14.0361C5.68771 14.2237 5.94206 14.329 6.20728 14.329H7.20728V15.329C7.20728 15.5942 7.31263 15.8486 7.50017 16.0361C7.68771 16.2237 7.94206 16.329 8.20728 16.329C8.47249 16.329 8.72685 16.2237 8.91438 16.0361C9.10192 15.8486 9.20728 15.5942 9.20728 15.329V14.329H10.2073C10.4725 14.329 10.7268 14.2237 10.9144 14.0361C11.1019 13.8486 11.2073 13.5942 11.2073 13.329C11.2073 13.0638 11.1019 12.8094 10.9144 12.6219C10.7268 12.4344 10.4725 12.329 10.2073 12.329Z" fill="white"/>
</svg>
