<svg width="21" height="21" viewBox="0 0 21 21" fill="none" xmlns="http://www.w3.org/2000/svg">
<path d="M12.2073 6.32901H13.2073C13.4725 6.32901 13.7268 6.22365 13.9144 6.03612C14.1019 5.84858 14.2073 5.59423 14.2073 5.32901C14.2073 5.06379 14.1019 4.80944 13.9144 4.6219C13.7268 4.43437 13.4725 4.32901 13.2073 4.32901H12.2073C11.9421 4.32901 11.6877 4.43437 11.5002 4.6219C11.3126 4.80944 11.2073 5.06379 11.2073 5.32901C11.2073 5.59423 11.3126 5.84858 11.5002 6.03612C11.6877 6.22365 11.9421 6.32901 12.2073 6.32901ZM12.2073 10.329H13.2073C13.4725 10.329 13.7268 10.2237 13.9144 10.0361C14.1019 9.84858 14.2073 9.59423 14.2073 9.32901C14.2073 9.06379 14.1019 8.80944 13.9144 8.6219C13.7268 8.43437 13.4725 8.32901 13.2073 8.32901H12.2073C11.9421 8.32901 11.6877 8.43437 11.5002 8.6219C11.3126 8.80944 11.2073 9.06379 11.2073 9.32901C11.2073 9.59423 11.3126 9.84858 11.5002 10.0361C11.6877 10.2237 11.9421 10.329 12.2073 10.329ZM7.20728 6.32901H8.20728C8.47249 6.32901 8.72685 6.22365 8.91438 6.03612C9.10192 5.84858 9.20728 5.59423 9.20728 5.32901C9.20728 5.06379 9.10192 4.80944 8.91438 4.6219C8.72685 4.43437 8.47249 4.32901 8.20728 4.32901H7.20728C6.94206 4.32901 6.68771 4.43437 6.50017 4.6219C6.31263 4.80944 6.20728 5.06379 6.20728 5.32901C6.20728 5.59423 6.31263 5.84858 6.50017 6.03612C6.68771 6.22365 6.94206 6.32901 7.20728 6.32901ZM7.20728 10.329H8.20728C8.47249 10.329 8.72685 10.2237 8.91438 10.0361C9.10192 9.84858 9.20728 9.59423 9.20728 9.32901C9.20728 9.06379 9.10192 8.80944 8.91438 8.6219C8.72685 8.43437 8.47249 8.32901 8.20728 8.32901H7.20728C6.94206 8.32901 6.68771 8.43437 6.50017 8.6219C6.31263 8.80944 6.20728 9.06379 6.20728 9.32901C6.20728 9.59423 6.31263 9.84858 6.50017 10.0361C6.68771 10.2237 6.94206 10.329 7.20728 10.329ZM19.2073 18.329H18.2073V1.32901C18.2073 1.06379 18.1019 0.80944 17.9144 0.621903C17.7268 0.434367 17.4725 0.32901 17.2073 0.32901H3.20728C2.94206 0.32901 2.68771 0.434367 2.50017 0.621903C2.31263 0.80944 2.20728 1.06379 2.20728 1.32901V18.329H1.20728C0.942059 18.329 0.687705 18.4344 0.500169 18.6219C0.312632 18.8094 0.207275 19.0638 0.207275 19.329C0.207275 19.5942 0.312632 19.8486 0.500169 20.0361C0.687705 20.2237 0.942059 20.329 1.20728 20.329H19.2073C19.4725 20.329 19.7268 20.2237 19.9144 20.0361C20.1019 19.8486 20.2073 19.5942 20.2073 19.329C20.2073 19.0638 20.1019 18.8094 19.9144 18.6219C19.7268 18.4344 19.4725 18.329 19.2073 18.329ZM11.2073 18.329H9.20728V14.329H11.2073V18.329ZM16.2073 18.329H13.2073V13.329C13.2073 13.0638 13.1019 12.8094 12.9144 12.6219C12.7268 12.4344 12.4725 12.329 12.2073 12.329H8.20728C7.94206 12.329 7.68771 12.4344 7.50017 12.6219C7.31263 12.8094 7.20728 13.0638 7.20728 13.329V18.329H4.20728V2.32901H16.2073V18.329Z" fill="white"/>
</svg>
