<svg width="8" height="13" viewBox="0 0 8 13" fill="none" xmlns="http://www.w3.org/2000/svg">
<path d="M7.46489 2.23808C7.88331 1.81966 7.88331 1.14127 7.46489 0.722854C7.04647 0.304435 6.36808 0.304435 5.94966 0.722854L7.46489 2.23808ZM1.70728 6.48047L0.949661 5.72285C0.531242 6.14127 0.531242 6.81966 0.949661 7.23808L1.70728 6.48047ZM5.94966 12.2381C6.36808 12.6565 7.04647 12.6565 7.46489 12.2381C7.88331 11.8197 7.88331 11.1413 7.46489 10.7229L5.94966 12.2381ZM5.94966 0.722854L0.949661 5.72285L2.46489 7.23808L7.46489 2.23808L5.94966 0.722854ZM0.949661 7.23808L5.94966 12.2381L7.46489 10.7229L2.46489 5.72285L0.949661 7.23808Z" fill="#1E3A8A"/>
</svg>
