<svg width="23" height="21" viewBox="0 0 23 21" fill="none" xmlns="http://www.w3.org/2000/svg">
<path d="M19.2073 0.32901H9.20728C8.41163 0.32901 7.64856 0.645081 7.08596 1.20769C6.52335 1.7703 6.20728 2.53336 6.20728 3.32901V10.329C6.20728 11.1247 6.52335 11.8877 7.08596 12.4503C7.64856 13.0129 8.41163 13.329 9.20728 13.329H19.2073C20.0029 13.329 20.766 13.0129 21.3286 12.4503C21.8912 11.8877 22.2073 11.1247 22.2073 10.329V3.32901C22.2073 2.53336 21.8912 1.7703 21.3286 1.20769C20.766 0.645081 20.0029 0.32901 19.2073 0.32901ZM20.2073 10.329C20.2073 10.5942 20.1019 10.8486 19.9144 11.0361C19.7268 11.2237 19.4725 11.329 19.2073 11.329H9.20728C8.94206 11.329 8.68771 11.2237 8.50017 11.0361C8.31263 10.8486 8.20728 10.5942 8.20728 10.329V3.32901C8.20728 3.06379 8.31263 2.80944 8.50017 2.6219C8.68771 2.43437 8.94206 2.32901 9.20728 2.32901H19.2073C19.4725 2.32901 19.7268 2.43437 19.9144 2.6219C20.1019 2.80944 20.2073 3.06379 20.2073 3.32901V10.329ZM16.7073 6.32901C16.3371 6.33026 15.9806 6.46929 15.7073 6.71901C15.4922 6.52356 15.2251 6.39478 14.9382 6.34831C14.6514 6.30185 14.3572 6.3397 14.0915 6.45727C13.8257 6.57483 13.5999 6.76706 13.4413 7.01058C13.2828 7.2541 13.1984 7.53843 13.1984 7.82901C13.1984 8.11959 13.2828 8.40392 13.4413 8.64744C13.5999 8.89096 13.8257 9.08319 14.0915 9.20075C14.3572 9.31832 14.6514 9.35617 14.9382 9.30971C15.2251 9.26324 15.4922 9.13446 15.7073 8.93901C15.8879 9.10314 16.1058 9.22073 16.3421 9.28159C16.5784 9.34245 16.826 9.34473 17.0634 9.28824C17.3008 9.23175 17.5208 9.1182 17.7044 8.95743C17.888 8.79666 18.0296 8.59353 18.1169 8.36565C18.2042 8.13778 18.2346 7.89205 18.2054 7.64977C18.1763 7.40749 18.0884 7.17598 17.9496 6.97533C17.8107 6.77468 17.6249 6.61093 17.4085 6.49831C17.192 6.38568 16.9513 6.32757 16.7073 6.32901ZM15.2073 15.329C14.9421 15.329 14.6877 15.4344 14.5002 15.6219C14.3126 15.8094 14.2073 16.0638 14.2073 16.329V17.329C14.2073 17.5942 14.1019 17.8486 13.9144 18.0361C13.7268 18.2237 13.4725 18.329 13.2073 18.329H3.20728C2.94206 18.329 2.68771 18.2237 2.50017 18.0361C2.31263 17.8486 2.20728 17.5942 2.20728 17.329V13.329H3.20728C3.47249 13.329 3.72685 13.2237 3.91438 13.0361C4.10192 12.8486 4.20728 12.5942 4.20728 12.329C4.20728 12.0638 4.10192 11.8094 3.91438 11.6219C3.72685 11.4344 3.47249 11.329 3.20728 11.329H2.20728V10.329C2.20728 10.0638 2.31263 9.80944 2.50017 9.6219C2.68771 9.43437 2.94206 9.32901 3.20728 9.32901C3.47249 9.32901 3.72685 9.22365 3.91438 9.03612C4.10192 8.84858 4.20728 8.59423 4.20728 8.32901C4.20728 8.06379 4.10192 7.80944 3.91438 7.6219C3.72685 7.43437 3.47249 7.32901 3.20728 7.32901C2.41163 7.32901 1.64856 7.64508 1.08596 8.20769C0.523346 8.7703 0.207275 9.53336 0.207275 10.329V17.329C0.207275 18.1247 0.523346 18.8877 1.08596 19.4503C1.64856 20.0129 2.41163 20.329 3.20728 20.329H13.2073C14.0029 20.329 14.766 20.0129 15.3286 19.4503C15.8912 18.8877 16.2073 18.1247 16.2073 17.329V16.329C16.2073 16.0638 16.1019 15.8094 15.9144 15.6219C15.7268 15.4344 15.4725 15.329 15.2073 15.329ZM5.20728 16.329H6.20728C6.47249 16.329 6.72685 16.2237 6.91438 16.0361C7.10192 15.8486 7.20728 15.5942 7.20728 15.329C7.20728 15.0638 7.10192 14.8094 6.91438 14.6219C6.72685 14.4344 6.47249 14.329 6.20728 14.329H5.20728C4.94206 14.329 4.68771 14.4344 4.50017 14.6219C4.31263 14.8094 4.20728 15.0638 4.20728 15.329C4.20728 15.5942 4.31263 15.8486 4.50017 16.0361C4.68771 16.2237 4.94206 16.329 5.20728 16.329Z" fill="white"/>
</svg>
