<svg width="21" height="21" viewBox="0 0 21 21" fill="none" xmlns="http://www.w3.org/2000/svg">
<path d="M7.20965 12.7803L7.20728 12.8046V12.829C7.20728 13.0942 7.10192 13.3486 6.91438 13.5361C6.72685 13.7237 6.47249 13.829 6.20728 13.829C5.94206 13.829 5.6877 13.7237 5.50017 13.5361C5.31263 13.3486 5.20728 13.0942 5.20728 12.829C5.20728 12.5638 5.31263 12.3094 5.50017 12.1219C5.6877 11.9344 5.94206 11.829 6.20728 11.829H6.41438L6.56083 11.6826L9.56083 8.68256L9.70728 8.53612V8.32901C9.70728 8.06379 9.81263 7.80944 10.0002 7.6219C10.1877 7.43437 10.4421 7.32901 10.7073 7.32901C10.9725 7.32901 11.2268 7.43437 11.4144 7.6219C11.6019 7.80944 11.7073 8.06379 11.7073 8.32901V8.5336L11.8507 8.67951L13.5807 10.4395L13.7276 10.589H13.9373H14.0973H14.3044L14.4508 10.4426L18.0608 6.83256L18.2279 6.66548L18.2049 6.43032C18.2032 6.41282 18.2032 6.3952 18.2049 6.3777L18.2073 6.35341V6.32901C18.2073 6.13123 18.2659 5.93789 18.3758 5.77344C18.4857 5.60899 18.6419 5.48082 18.8246 5.40513C19.0073 5.32944 19.2084 5.30964 19.4024 5.34822C19.5963 5.38681 19.7745 5.48205 19.9144 5.6219C20.0542 5.76176 20.1495 5.93994 20.1881 6.13392C20.2266 6.3279 20.2068 6.52896 20.1312 6.71169C20.0555 6.89442 19.9273 7.0506 19.7628 7.16048C19.5984 7.27036 19.4051 7.32901 19.2073 7.32901H18.999L18.8523 7.47691L15.2123 11.1469L15.0673 11.2931V11.499V11.579C15.0673 11.8442 14.9619 12.0986 14.7744 12.2861C14.5868 12.4737 14.3325 12.579 14.0673 12.579C13.8021 12.579 13.5477 12.4737 13.3602 12.2861C13.1726 12.0986 13.0673 11.8442 13.0673 11.579V11.5788V11.5787V11.5785V11.5783V11.5781V11.5779V11.5778V11.5776V11.5774V11.5772V11.577V11.5769V11.5767V11.5765V11.5763V11.5761V11.576V11.5758V11.5756V11.5754V11.5752V11.575V11.5749V11.5747V11.5745V11.5743V11.5741V11.5739V11.5737V11.5735V11.5734V11.5732V11.573V11.5728V11.5726V11.5724V11.5722V11.572V11.5718V11.5716V11.5715V11.5713V11.5711V11.5709V11.5707V11.5705V11.5703V11.5701V11.5699V11.5697V11.5695V11.5693V11.5691V11.5689V11.5687V11.5685V11.5683V11.5681V11.5679V11.5678V11.5676V11.5674V11.5672V11.567V11.5668V11.5666V11.5664V11.5662V11.566V11.5658V11.5656V11.5654V11.5652V11.565V11.5648V11.5646V11.5644V11.5642V11.564V11.5637V11.5635V11.5633V11.5631V11.5629V11.5627V11.5625V11.5623V11.5621V11.5619V11.5617V11.5615V11.5613V11.5611V11.5609V11.5607V11.5605V11.5603V11.5601V11.5599V11.5597V11.5595V11.5593V11.559V11.5588V11.5586V11.5584V11.5582V11.558V11.5578V11.5576V11.5574V11.5572V11.557V11.5568V11.5566V11.5564V11.5561V11.5559V11.5557V11.5555V11.5553V11.5551V11.5549V11.5547V11.5545V11.5543V11.5541V11.5539V11.5536V11.5534V11.5532V11.553V11.5528V11.5526V11.5524V11.5522V11.552V11.5518V11.5516V11.5513V11.5511V11.5509V11.5507V11.5505V11.5503V11.5501V11.5499V11.5497V11.5495V11.5493V11.549V11.5488V11.5486V11.5484V11.5482V11.548V11.5478V11.5476V11.5474V11.5472V11.547V11.5467V11.5465V11.5463V11.5461V11.5459V11.5457V11.5455V11.5453V11.5451V11.5449V11.5447V11.5444V11.5442V11.544V11.5438V11.5436V11.5434V11.5432V11.543V11.5428V11.5426V11.5424V11.5422V11.542V11.5418V11.5415V11.5413V11.5411V11.5409V11.5407V11.5405V11.5403V11.5401V11.5399V11.5397V11.5395V11.5393V11.5391V11.5389V11.5387V11.5385V11.5383V11.5381V11.5378V11.5376V11.5374V11.5372V11.537V11.5368V11.5366V11.5364V11.5362V11.536V11.5358V11.5356V11.5354V11.5352V11.535V11.5348V11.5346V11.5344V11.5342V11.534V11.5338V11.5336V11.5334V11.5332V11.533V11.5328V11.5326V11.5324V11.5322V11.532V11.5318V11.5316V11.5314V11.5312V11.531V11.5308V11.5307V11.5305V11.5303V11.5301V11.5299V11.5297V11.5295V11.5293V11.5291V11.5289V11.5287V11.5285V11.5283V11.5281V11.528V11.5278V11.5276V11.5274V11.5272V11.527V11.5268V11.5266V11.5264V11.5262V11.5261V11.5259V11.5257V11.5255V11.5253V11.5251V11.5249V11.5248V11.5246V11.5244V11.5242V11.524V11.5238V11.5237V11.5235V11.5233V11.5231V11.5229V11.5228V11.5226V11.5224V11.5222V11.522V11.5219V11.5217V11.5215V11.5213V11.5212V11.521V11.5208V11.5206V11.5205V11.5203V11.5201V11.5199V11.5198V11.5196V11.5194V11.5192V11.5191V11.5189V11.5187V11.5186V11.5184V11.5182V11.5181V11.5179V11.5177V11.5176V11.5174V11.5172V11.5171V11.5169V11.5167V11.5166V11.5164V11.5163V11.5161V11.5159V11.5158V11.5156V11.5155V11.5153V11.5151V11.515V11.5148V11.5147V11.5145V11.5144V11.5142V11.514V11.5139V11.5137V11.5136V11.5134V11.5133V11.5131V11.513V11.5128V11.5127V11.5125V11.5124V11.5122V11.5121V11.512V11.5118V11.5117V11.5115V11.5114V11.5112V11.5111V11.511V11.5108V11.5107V11.5105V11.5104V11.5103V11.5101V11.51V11.5099V11.5097V11.5096V11.5095V11.5093V11.5092V11.5091V11.5089V11.5088V11.5087V11.5085V11.5084V11.5083V11.5082V11.508V11.5079V11.5078V11.5077V11.5075V11.5074V11.5073V11.5072V11.5071V11.5069V11.5068V11.5067V11.5066V11.5065V11.5063V11.5062V11.5061V11.506V11.5059V11.5058V11.5057V11.5056V11.5055V11.5053V11.5052V11.5051V11.505V11.5049V11.5048V11.5047V11.5046V11.5045V11.5044V11.5043V11.5042V11.5041V11.504V11.5039V11.5038V11.5037V11.5036V11.5035V11.5034V11.5034V11.5033V11.5032V11.5031V11.503V11.5029V11.5028V11.5027V11.5027V11.5026V11.5025V11.5024V11.5023V11.5022V11.5022V11.5021V11.502V11.5019V11.5019V11.5018V11.5017V11.5016V11.5016V11.5015V11.5014V11.5014V11.5013V11.5012V11.5012V11.5011V11.501V11.501V11.5009V11.5008V11.5008V11.5007V11.5007V11.5006V11.5005V11.5005V11.5004V11.5004V11.5003V11.5003V11.5002V11.5002V11.5001V11.5001V11.5V11.5V11.4999V11.4999V11.4998V11.4998V11.4998V11.4997V11.4997V11.4997V11.4996V11.4996V11.4995V11.4995V11.4995V11.4994V11.4994V11.4994V11.4994V11.4993V11.4993V11.4993V11.4993V11.4992V11.4992V11.4992V11.4992V11.4992V11.4991V11.4991V11.4991V11.4991V11.4991V11.4991V11.4991V11.499V11.499V11.499V11.499V11.499V11.2919L12.9208 11.1455L11.3108 9.53546L11.1644 9.38901H10.9573H10.7273H10.4973H10.2902L10.1437 9.53546L7.35372 12.3255L7.18664 12.4925L7.20965 12.7277C7.21136 12.7452 7.21136 12.7628 7.20965 12.7803ZM2.20728 18.329V18.829H2.70728H19.7073C19.8399 18.829 19.9671 18.8817 20.0608 18.9755C20.1546 19.0692 20.2073 19.1964 20.2073 19.329C20.2073 19.4616 20.1546 19.5888 20.0608 19.6826C19.9671 19.7763 19.8399 19.829 19.7073 19.829H1.70728C1.57467 19.829 1.44749 19.7763 1.35372 19.6826C1.25995 19.5888 1.20728 19.4616 1.20728 19.329V1.32901C1.20728 1.1964 1.25995 1.06922 1.35372 0.975457C1.44749 0.881688 1.57467 0.82901 1.70728 0.82901C1.83988 0.82901 1.96706 0.881688 2.06083 0.975457C2.1546 1.06922 2.20728 1.1964 2.20728 1.32901V18.329Z" fill="#1E3A8A" stroke="white"/>
</svg>
